<?xml version="1.0" encoding="utf-8"?>
<!-- Generator: Adobe Illustrator 19.2.0, SVG Export Plug-In . SVG Version: 6.00 Build 0)  -->
<svg version="1.1" id="Layer_1" xmlns="http://www.w3.org/2000/svg" xmlns:xlink="http://www.w3.org/1999/xlink" x="0px" y="0px"
	 viewBox="0 0 1190.6 137.3" style="enable-background:new 0 0 1190.6 137.3;" xml:space="preserve">
<style type="text/css">
	.st0{fill:#FFFFFF;}
</style>
<g>
	<path class="st0" d="M88.8,135.2l-7.7-66.6l-7.9,66.6H39.5L16,6.8h34.3L58,76.5L68.2,6.8H94l10.4,69.7l7.5-69.7h34.3l-23.5,128.4
		H88.8z"/>
	<path class="st0" d="M154.8,135.2V6.8h64.7v29.7h-30.6v18.9h29.3V85h-29.3v20.6h30.6v29.7H154.8z"/>
	<path class="st0" d="M232.8,135.2V6.8h39.7c35,0,49.9,28.3,49.9,64.3c0,36.4-14.4,64.1-49.7,64.1H232.8z M287.7,71.1
		c0-26.2-6.2-34.7-15.2-34.7h-5.6v69.1h5.6C281.7,105.6,287.7,95.5,287.7,71.1z"/>
	<path class="st0" d="M355.4,83.6c5.4-5.5,10.8-10.9,16.3-16.4c3.1-3.1,6.3-6.3,9.4-9.4c-8.6-5.1-16.2-8.8-16.2-15.2
		c0-4.4,3.1-7.9,8.7-7.9c7.1,0,13.7,2.3,19.3,7.9l12.3-26.2c-8.1-7.5-20-11.7-32.9-11.7c-27.9,0-42,19.8-42,39.9
		C330.3,67.7,343.8,77,355.4,83.6z"/>
	<path class="st0" d="M395.2,58.3c-8.4,8.5-16.9,17-25.3,25.4c4.9,3.1,8.4,6.2,8.4,10.8c0,4.6-3.1,8.3-9,8.3
		c-4.8,0-9.9-1.2-14.6-3.7c-6.9,7-13.9,14-20.8,21c9.5,8.4,21.3,12.8,37.7,12.8c25.2,0,41.2-16.8,41.2-40.8
		C412.7,74.6,404.4,65,395.2,58.3z"/>
	<path class="st0" d="M432,6.8h-21.8v21.8C417.4,21.3,424.7,14.1,432,6.8z"/>
	<path class="st0" d="M421.6,31.8h13.5v98.8h34.1V31.8h18.5V2.1h-36.5C441.3,12,431.4,21.9,421.6,31.8z"/>
	<path class="st0" d="M492.6,66.4c0-38.9,14.8-66.4,46.8-66.4c32,0,46.8,27.5,46.8,66.4c0,38.9-14.8,66.4-46.8,66.4
		C507.5,132.9,492.6,105.3,492.6,66.4z M551.6,66.4c0-22-3.1-36.4-12.1-36.4s-12.1,14.4-12.1,36.4c0,21.8,3.1,36.4,12.1,36.4
		S551.6,88.2,551.6,66.4z"/>
	<path class="st0" d="M593.1,66.4c0-39.3,14.8-66.4,47-66.4c25.4,0,33.5,20.4,37.9,35.8l-26.8,9.8c-1.9-9.8-4.6-15.6-11.2-15.6
		c-9.4,0-12.3,14.2-12.3,36.4s2.9,36.4,12.3,36.4c6.9,0,10.2-7.7,11.4-17.9l26.6,9.6c-3.7,15.6-11.7,38.3-37.9,38.3
		C608,132.9,593.1,105.5,593.1,66.4z"/>
	<path class="st0" d="M743.3,130.5l-14.4-42.4l-7.3,16v26.4h-34.1V2.1h34.1v52l20.8-52h37l-30,59.9l32.2,68.5H743.3z"/>
	<path class="st0" d="M816.1,130.5v-28.1c44.9-44.7,49.3-49.7,49.3-60.3c0-6.2-3.9-11.9-11.7-11.9s-15.4,4-21.4,12.3l-20.4-20.8
		c10-13.3,23.7-21.6,43.7-21.6c26.4,0,43.9,16,43.9,41c0,17.5-9.4,30.8-37.5,59.7h38.3v29.7H816.1z"/>
	<path class="st0" d="M951.3,49.7c1.1-10.7,3.6-14.8,8.9-14.8c7.4,0,9.3,8.5,9.4,33.1c10.4,10.4,20.8,20.8,31.2,31.2
		c2.3-8.6,3.5-18.2,3.5-28.2c0-35.6-10.5-66.2-44.1-66.2c-14.9,0-26.1,7.9-33.5,20.3L951.3,49.7z"/>
	<path class="st0" d="M961.8,76.3c-0.5,19.3-2.7,26.6-9.3,26.6c-7.9,0-9.6-9.6-9.6-36.4c0-3.3,0-6.3,0.1-9.1l-28.2-28.2
		c-4.3,10.7-6.5,23.6-6.5,37.3c0,35.4,14.8,66.4,44.3,66.4c18,0,30.4-11.5,37.4-28.6C980.5,95,971.1,85.6,961.8,76.3z"/>
	<path class="st0" d="M1041.5,135.2V50.1l-16.4,16.8l-19.3-20l40.4-40.1h29.3v128.4H1041.5z"/>
	<path class="st0" d="M1091.6,125l16.6-25c3.7,4.8,8.1,7.3,14.1,7.3c8.1,0,18.1-8.7,18.1-28.1c0-0.6,0-0.6,0-1.2
		c-3.9,8.9-12.7,14.2-22.7,14.2c-16.6,0-30.8-15-30.8-42.4c0-27.9,18.3-45.2,41-45.2c32.5,0,46.8,29.3,46.8,66.2
		c0,41.6-20.6,66.4-51.6,66.4C1110.6,137.3,1098.9,132.5,1091.6,125z M1140.5,55.1c-0.6-10.8-2.5-20.4-10.2-20.4
		c-6.5,0-9.4,7.3-9.4,13.9c0,11.2,5.4,14.8,9.6,14.8C1135.5,63.4,1138.2,59.7,1140.5,55.1z"/>
</g>
</svg>
