<?xml version="1.0" encoding="utf-8"?>
<!-- Generator: Adobe Illustrator 23.0.2, SVG Export Plug-In . SVG Version: 6.00 Build 0)  -->
<svg version="1.1" id="Layer_1" xmlns="http://www.w3.org/2000/svg" xmlns:xlink="http://www.w3.org/1999/xlink" x="0px" y="0px"
	 viewBox="0 0 224.96 54.94" style="enable-background:new 0 0 224.96 54.94;" xml:space="preserve">
<style type="text/css">
	.st0{fill:#FFFFFF;}
</style>
<g>
	<path class="st0" d="M14.3,45.47h-11V4.76h10.65c5.31,0,9.25,1.08,11.81,3.24c3.02,2.55,4.54,6.09,4.54,10.63
		c0,4.94-1.61,8.62-4.83,11.05c-2.2,1.63-5.35,2.45-9.47,2.45H14.3V45.47z M14.3,22.98L14.8,23c1.34,0,2.4-0.41,3.19-1.23
		s1.19-1.94,1.19-3.36c0-1.41-0.39-2.55-1.16-3.43c-0.77-0.9-1.76-1.34-2.95-1.34H14.3V22.98z"/>
	<path class="st0" d="M45.15,15.6v-1.7h0.4c0.43,0,0.83,0.03,1.2,0.09c2.54-2.55,5.08-5.09,7.62-7.63c-2.3-1.07-5.29-1.61-8.96-1.61
		H34.16v21.9C37.82,22.98,41.48,19.28,45.15,15.6z"/>
	<path class="st0" d="M59.24,20.34c0-4.47-1.48-7.93-4.43-10.41c-2.48,2.48-4.95,4.96-7.43,7.44c0.61,0.75,0.94,1.77,0.94,3.11
		c0,1.49-0.42,2.73-1.27,3.69c-0.84,0.97-1.9,1.45-3.16,1.45h-0.74v-4c-3.67,3.68-7.33,7.37-11,11.06v14.81H43.1V33.23l-0.08-2.69
		c0.19,0.56,0.36,1.05,0.49,1.45c0.13,0.4,0.22,0.73,0.28,0.98l5.43,14.5h11.89l-8.17-16.93C57.14,28.66,59.24,25.26,59.24,20.34z"
		/>
	<path class="st0" d="M64.75,47.47V6.76h20.43v9.57h-9.44v5.93h8.46v9.2h-8.46v6.22h9.44v9.78H64.75z"/>
	<path class="st0" d="M89,46.47V33.68c2.16,2.95,4.5,4.43,7.01,4.43c0.95,0,1.72-0.25,2.32-0.75c0.6-0.5,0.9-1.13,0.9-1.89
		c0-1.09-0.65-2.15-1.95-3.19l-1.79-1.4c-1.2-0.9-2.21-1.79-3.06-2.68c-0.84-0.89-1.53-1.8-2.06-2.74
		c-0.53-0.94-0.91-1.91-1.16-2.91c-0.25-1-0.37-2.06-0.37-3.16c0-1.9,0.44-3.88,1.32-5.96c0.44-0.97,0.95-1.85,1.53-2.65
		c0.58-0.8,1.25-1.51,2-2.12c2.07-1.76,4.58-2.64,7.51-2.64c2.62,0,5.26,0.69,7.91,2.08v12.45c-0.9-1.39-1.92-2.48-3.06-3.28
		c-1.14-0.8-2.27-1.2-3.38-1.2c-0.84,0-1.54,0.25-2.08,0.74c-0.56,0.47-0.84,1.05-0.84,1.71c0,1.09,0.75,2.17,2.24,3.24l1.74,1.29
		c2.32,1.67,3.98,3.38,4.98,5.14c1.02,1.76,1.53,3.81,1.53,6.17c0,4.01-1.22,7.31-3.67,9.91c-2.44,2.6-5.54,3.9-9.28,3.9
		C94.73,48.18,91.96,47.61,89,46.47z"/>
	<polygon class="st0" points="134.99,16.33 134.99,15.41 126.33,6.76 114.55,6.76 114.55,47.47 134.99,47.47 134.99,37.69 
		125.55,37.69 125.55,31.46 134.01,31.46 134.01,22.26 125.55,22.26 125.55,16.33 	"/>
	<polygon class="st0" points="136.99,13.42 136.99,8.76 132.33,8.76 	"/>
	<path class="st0" d="M152.68,28.11c-0.05-0.68-0.1-1.38-0.16-2.11c0.25,0.89,0.53,1.83,0.84,2.78l17.99,17.99V8.76h-10.49v9.15
		c0,1.71,0.11,3.81,0.32,6.33c0.21,2.51,0.52,5.54,0.92,9.07l-1.13-3.59c-0.46-1.42-0.87-2.68-1.25-3.77
		c-0.38-1.09-0.72-2.06-1.02-2.9l-5.51-14.29h-10.49v9.35L152.68,28.11z"/>
	<path class="st0" d="M149.96,30.38l-10.28-10.28v27.36h10.49V37.08c0-1.6-0.05-3.46-0.16-5.59C150,31.14,149.98,30.76,149.96,30.38
		z"/>
	<polygon class="st0" points="152.45,32.88 157.85,47.47 167.05,47.47 	"/>
	<path class="st0" d="M191.25,49.47h-11V18.51h-6.06V8.76h23.36v9.76h-6.3V49.47z"/>
	<path class="st0" d="M200.4,48.47V35.68c2.16,2.95,4.5,4.43,7.01,4.43c0.95,0,1.72-0.25,2.32-0.75s0.9-1.13,0.9-1.89
		c0-1.09-0.65-2.15-1.95-3.19l-1.79-1.4c-1.2-0.9-2.21-1.79-3.06-2.68c-0.84-0.89-1.53-1.8-2.06-2.74
		c-0.53-0.94-0.91-1.91-1.16-2.91c-0.25-1-0.37-2.06-0.37-3.16c0-1.9,0.44-3.88,1.32-5.96c0.44-0.97,0.95-1.85,1.53-2.65
		c0.58-0.8,1.25-1.51,2-2.12c2.07-1.76,4.58-2.64,7.51-2.64c2.62,0,5.26,0.69,7.91,2.08v12.45c-0.9-1.39-1.92-2.48-3.06-3.28
		c-1.14-0.8-2.27-1.2-3.38-1.2c-0.84,0-1.54,0.25-2.08,0.74c-0.56,0.47-0.84,1.05-0.84,1.71c0,1.09,0.75,2.17,2.24,3.24l1.74,1.29
		c2.32,1.67,3.98,3.38,4.98,5.14c1.02,1.76,1.53,3.81,1.53,6.17c0,4.01-1.22,7.31-3.67,9.91c-2.44,2.6-5.54,3.9-9.28,3.9
		C206.12,50.18,203.35,49.61,200.4,48.47z"/>
</g>
</svg>
