<?xml version="1.0" encoding="utf-8"?>
<!-- Generator: Adobe Illustrator 23.0.2, SVG Export Plug-In . SVG Version: 6.00 Build 0)  -->
<svg version="1.1" id="Layer_1" xmlns="http://www.w3.org/2000/svg" xmlns:xlink="http://www.w3.org/1999/xlink" x="0px" y="0px"
	 viewBox="0 0 201.79 45.25" style="enable-background:new 0 0 201.79 45.25;" xml:space="preserve">
<style type="text/css">
	.st0{fill:#FFFFFF;}
</style>
<g>
	<path class="st0" d="M11,20.29v-7.32h0.4c3.18,0,4.77,1.52,4.77,4.56c0,1.49-0.42,2.73-1.27,3.69c-0.51,0.58-1.1,0.97-1.77,1.2
		c3.32,3.32,6.63,6.63,9.95,9.95l-2.3-4.77c4.2-1.88,6.3-5.28,6.3-10.2c0-4.6-1.56-8.16-4.69-10.65c-2.46-1.95-6.17-2.93-11.13-2.93
		H0v5.47L11,20.29z"/>
	<path class="st0" d="M0,13.29v31.25h10.94V30.29l-0.08-2.69c0.19,0.56,0.36,1.05,0.49,1.45c0.13,0.4,0.22,0.73,0.28,0.98l5.43,14.5
		h11.89l-2.14-4.44L0,13.29z"/>
	<path class="st0" d="M32.01,22.53c0.53,0.94,1.21,1.85,2.06,2.74c0.84,0.89,1.86,1.78,3.06,2.68l1.79,1.4
		c1.3,1.04,1.95,2.1,1.95,3.19c0,0.76-0.3,1.38-0.9,1.89c-0.6,0.5-1.37,0.75-2.32,0.75c-2.51,0-4.85-1.48-7.01-4.43v9.19l4.99,4.99
		c1.13,0.2,2.24,0.32,3.31,0.32c3.74,0,6.84-1.3,9.28-3.9c2.44-2.6,3.67-5.91,3.67-9.91c0-2.36-0.51-4.41-1.53-6.17
		c-1-1.76-2.66-3.47-4.98-5.14l-1.74-1.29c-1.49-1.07-2.24-2.15-2.24-3.24c0-0.67,0.28-1.24,0.84-1.71
		c0.54-0.49,1.24-0.74,2.08-0.74c1.11,0,2.23,0.4,3.38,1.2c1.14,0.8,2.16,1.89,3.06,3.28V5.17c-2.65-1.39-5.29-2.08-7.91-2.08
		c-2.94,0-5.44,0.88-7.51,2.64c-0.76,0.62-1.42,1.32-2,2.12c-0.58,0.8-1.09,1.68-1.53,2.65c-0.88,2.07-1.32,4.06-1.32,5.96
		c0,1.11,0.12,2.16,0.37,3.16C31.1,20.62,31.48,21.59,32.01,22.53z"/>
	<polygon class="st0" points="80.04,10.25 82.33,1.82 71.61,1.82 	"/>
	<path class="st0" d="M71.94,6.14L69.78,17.3c-0.39,2.02-0.72,4.1-1,6.22c-0.28,2.13-0.52,4.41-0.71,6.86
		c-0.46-5.5-1.06-10.48-1.82-14.92l-2-11.63H52.69l9.33,40.71h11.21l7.95-29.15C78.1,12.31,75.02,9.22,71.94,6.14z"/>
	<polygon class="st0" points="87.18,21.39 87.18,44.53 98.18,44.53 98.18,32.38 	"/>
	<path class="st0" d="M98.95,29.16c3.59-0.13,6.4-0.94,8.4-2.42c3.22-2.43,4.83-6.11,4.83-11.05c0-4.54-1.51-8.08-4.54-10.63
		c-2.57-2.16-6.5-3.24-11.81-3.24H85.18v13.57L98.95,29.16z M96.18,10.71h0.76c1.2,0,2.18,0.45,2.95,1.34
		c0.77,0.88,1.16,2.02,1.16,3.43c0,1.42-0.4,2.54-1.19,3.36s-1.85,1.23-3.19,1.23l-0.5-0.03V10.71z"/>
</g>
</svg>
