<?xml version="1.0" encoding="utf-8"?>
<!-- Generator: Adobe Illustrator 23.0.2, SVG Export Plug-In . SVG Version: 6.00 Build 0)  -->
<svg version="1.1" id="Layer_1" xmlns="http://www.w3.org/2000/svg" xmlns:xlink="http://www.w3.org/1999/xlink" x="0px" y="0px"
	 viewBox="0 0 112.1 45.2" style="enable-background:new 0 0 112.1 45.2;" xml:space="preserve">
<style type="text/css">
	.st0{fill:#FFFFFF;}
</style>
<g>
	<path class="st0" d="M11,20.3V13h0.4c3.2,0,4.8,1.5,4.8,4.6c0,1.5-0.4,2.7-1.3,3.7c-0.5,0.6-1.1,1-1.8,1.2c3.3,3.3,6.6,6.6,9.9,10
		l-2.3-4.8c4.2-1.9,6.3-5.3,6.3-10.2c0-4.6-1.6-8.2-4.7-10.6C19.8,5,16.1,4,11.2,4H0v5.5L11,20.3z"/>
	<path class="st0" d="M0,13.3v31.2h10.9V30.3l-0.1-2.7c0.2,0.6,0.4,1,0.5,1.5c0.1,0.4,0.2,0.7,0.3,1L17,44.6h12l-2.1-4.4L0,13.3z"/>
	<path class="st0" d="M32,22.5c0.5,0.9,1.2,1.9,2.1,2.7c0.8,0.9,1.9,1.8,3.1,2.7l1.8,1.4c1.3,1,2,2.1,2,3.2c0,0.8-0.3,1.4-0.9,1.9
		c-0.6,0.5-1.4,0.8-2.3,0.8c-2.5,0-4.8-1.5-7-4.4V40l5,5c1.1,0.2,2.2,0.3,3.3,0.3c3.7,0,6.8-1.3,9.3-3.9c2.4-2.6,3.7-5.9,3.7-9.9
		c0-2.4-0.5-4.4-1.5-6.2s-2.7-3.5-5-5.1l-1.7-1.3c-1.5-1.1-2.2-2.1-2.2-3.2c0-0.7,0.3-1.2,0.8-1.7s1.2-0.7,2.1-0.7
		c1.1,0,2.2,0.4,3.4,1.2c1.1,0.8,2.2,1.9,3.1,3.3V5.2c-2.7-1.4-5.3-2.1-7.9-2.1c-2.9,0-5.4,0.9-7.5,2.6c-0.8,0.6-1.4,1.3-2,2.1
		s-1.1,1.7-1.5,2.7c-0.9,2.1-1.3,4.1-1.3,6c0,1.1,0.1,2.2,0.4,3.2C31.1,20.6,31.5,21.6,32,22.5z"/>
	<polygon class="st0" points="80,10.2 82.3,1.8 71.6,1.8 	"/>
	<path class="st0" d="M71.9,6.1l-2.2,11.2c-0.4,2-0.7,4.1-1,6.2s-0.5,4.4-0.7,6.9c-0.5-5.5-1.1-10.5-1.8-14.9l-2-11.6H52.7L62,44.5
		h11.2l7.9-29.1C78.1,12.3,75,9.2,71.9,6.1z"/>
	<polygon class="st0" points="87.2,21.4 87.2,44.5 98.2,44.5 98.2,32.4 	"/>
	<path class="st0" d="M98.9,29.2c3.6-0.1,6.4-0.9,8.4-2.4c3.2-2.4,4.8-6.1,4.8-11c0-4.5-1.5-8.1-4.5-10.6C105,3,101.1,2,95.8,2H85.2
		v13.6L98.9,29.2z M96.2,10.7H97c1.2,0,2.2,0.4,2.9,1.3c0.8,0.9,1.2,2,1.2,3.4s-0.4,2.5-1.2,3.4S98.1,20,96.7,20h-0.5L96.2,10.7
		L96.2,10.7z"/>
</g>
</svg>
