<?xml version="1.0" encoding="utf-8"?>
<!-- Generator: Adobe Illustrator 23.0.2, SVG Export Plug-In . SVG Version: 6.00 Build 0)  -->
<svg version="1.1" id="Layer_1" xmlns="http://www.w3.org/2000/svg" xmlns:xlink="http://www.w3.org/1999/xlink" x="0px" y="0px"
	 viewBox="0 0 535.67 87.77" style="enable-background:new 0 0 535.67 87.77;" xml:space="preserve">
<style type="text/css">
	.st0{clip-path:url(#SVGID_2_);}
	.st1{clip-path:url(#SVGID_4_);enable-background:new    ;}
	.st2{clip-path:url(#SVGID_6_);}
	.st3{clip-path:url(#SVGID_8_);}
	.st4{clip-path:url(#SVGID_10_);fill:#FFFFFF;}
	.st5{clip-path:url(#SVGID_12_);}
	.st6{clip-path:url(#SVGID_14_);fill:#FFFFFF;}
	.st7{clip-path:url(#SVGID_16_);}
	.st8{clip-path:url(#SVGID_18_);fill:#FFFFFF;}
	.st9{clip-path:url(#SVGID_20_);}
	.st10{clip-path:url(#SVGID_22_);fill:#FFFFFF;}
	.st11{clip-path:url(#SVGID_24_);}
	.st12{clip-path:url(#SVGID_26_);fill:#FFFFFF;}
	.st13{clip-path:url(#SVGID_28_);}
	.st14{clip-path:url(#SVGID_30_);fill:#FFFFFF;}
	.st15{clip-path:url(#SVGID_32_);}
	.st16{clip-path:url(#SVGID_34_);fill:#FFFFFF;}
	.st17{clip-path:url(#SVGID_36_);}
	.st18{clip-path:url(#SVGID_38_);fill:#FFFFFF;}
	.st19{clip-path:url(#SVGID_40_);}
	.st20{clip-path:url(#SVGID_42_);fill:#FFFFFF;}
	.st21{clip-path:url(#SVGID_44_);}
	.st22{clip-path:url(#SVGID_46_);fill:#FFFFFF;}
	.st23{clip-path:url(#SVGID_48_);}
	.st24{clip-path:url(#SVGID_50_);fill:#FFFFFF;}
	.st25{clip-path:url(#SVGID_52_);}
	.st26{clip-path:url(#SVGID_54_);enable-background:new    ;}
	.st27{clip-path:url(#SVGID_56_);}
	.st28{clip-path:url(#SVGID_58_);}
	.st29{clip-path:url(#SVGID_60_);fill:#FFFFFF;}
	.st30{clip-path:url(#SVGID_62_);}
	.st31{clip-path:url(#SVGID_64_);fill:#FFFFFF;}
	.st32{clip-path:url(#SVGID_66_);}
	.st33{clip-path:url(#SVGID_68_);fill:#FFFFFF;}
	.st34{clip-path:url(#SVGID_70_);}
	.st35{clip-path:url(#SVGID_72_);fill:#FFFFFF;}
	.st36{clip-path:url(#SVGID_74_);}
	.st37{clip-path:url(#SVGID_76_);enable-background:new    ;}
	.st38{clip-path:url(#SVGID_78_);}
	.st39{clip-path:url(#SVGID_80_);}
	.st40{clip-path:url(#SVGID_82_);fill:#FFFFFF;}
	.st41{clip-path:url(#SVGID_84_);}
	.st42{clip-path:url(#SVGID_86_);fill:#FFFFFF;}
	.st43{clip-path:url(#SVGID_88_);}
	.st44{clip-path:url(#SVGID_90_);enable-background:new    ;}
	.st45{clip-path:url(#SVGID_92_);}
	.st46{clip-path:url(#SVGID_94_);}
	.st47{clip-path:url(#SVGID_96_);fill:#FFFFFF;}
</style>
<g>
	<g>
		<defs>
			<rect id="SVGID_1_" x="5.6" y="6.75" width="35.64" height="70.82"/>
		</defs>
		<clipPath id="SVGID_2_">
			<use xlink:href="#SVGID_1_"  style="overflow:visible;"/>
		</clipPath>
		<g class="st0">
			<defs>
				<rect id="SVGID_3_" x="-714.4" y="-3764.91" width="1440" height="5288"/>
			</defs>
			<clipPath id="SVGID_4_">
				<use xlink:href="#SVGID_3_"  style="overflow:visible;"/>
			</clipPath>
			<g class="st1">
				<g>
					<defs>
						<rect id="SVGID_5_" x="4.6" y="6.09" width="37" height="72"/>
					</defs>
					<clipPath id="SVGID_6_">
						<use xlink:href="#SVGID_5_"  style="overflow:visible;"/>
					</clipPath>
					<g class="st2">
						<defs>
							<path id="SVGID_7_" d="M19.64,23.67c0-4.16,2.92-6.94,7.13-6.94c4,0,7.34,2.13,10.26,4.59v-9.51
								c-7.39-2.06-14.87-3.8-22.39-5.07C8.72,10.4,5.6,17.45,5.6,25.16c0,10.35,5.18,15.48,13.28,21.03
								c2.38,1.6,6.37,3.95,7.67,6.62c0.54,1.17,0.76,2.35,0.76,3.63c0,4.91-3.56,7.9-8.42,7.9c-4,0-7.34-1.71-10.58-3.84v13.45
								c3.67,2.45,7.99,3.63,12.42,3.63c13.07,0,20.52-9.71,20.52-21.99C41.24,35.73,19.64,35.95,19.64,23.67"/>
						</defs>
						<clipPath id="SVGID_8_">
							<use xlink:href="#SVGID_7_"  style="overflow:visible;"/>
						</clipPath>
						<g class="st3">
							<defs>
								<rect id="SVGID_9_" x="5.6" y="6.09" width="36" height="72"/>
							</defs>
							<clipPath id="SVGID_10_">
								<use xlink:href="#SVGID_9_"  style="overflow:visible;"/>
							</clipPath>
							<rect x="0.6" y="1.75" class="st4" width="45.64" height="80.82"/>
						</g>
					</g>
				</g>
			</g>
		</g>
	</g>
	<g>
		<defs>
			<path id="SVGID_11_" d="M79.47,19.09h8.14v-13h-36v3.31C61.05,12.27,70.36,15.61,79.47,19.09"/>
		</defs>
		<clipPath id="SVGID_12_">
			<use xlink:href="#SVGID_11_"  style="overflow:visible;"/>
		</clipPath>
		<g class="st5">
			<defs>
				<rect id="SVGID_13_" x="-714.4" y="-3764.91" width="1440" height="5288"/>
			</defs>
			<clipPath id="SVGID_14_">
				<use xlink:href="#SVGID_13_"  style="overflow:visible;"/>
			</clipPath>
			<rect x="46.6" y="1.09" class="st6" width="46" height="23"/>
		</g>
	</g>
	<g>
		<defs>
			<path id="SVGID_15_" d="M43.6,14.09v4.42h10.96v58.58H68.6V22.85C60.43,19.75,52.08,16.74,43.6,14.09"/>
		</defs>
		<clipPath id="SVGID_16_">
			<use xlink:href="#SVGID_15_"  style="overflow:visible;"/>
		</clipPath>
		<g class="st7">
			<defs>
				<rect id="SVGID_17_" x="-714.4" y="-3764.91" width="1440" height="5288"/>
			</defs>
			<clipPath id="SVGID_18_">
				<use xlink:href="#SVGID_17_"  style="overflow:visible;"/>
			</clipPath>
			<rect x="38.6" y="9.09" class="st8" width="35" height="73"/>
		</g>
	</g>
	<g>
		<defs>
			<path id="SVGID_19_" d="M109.54,31.24c0.26-2.22,0.48-4.45,0.62-6.68c0.25,2.41,0.56,4.87,0.89,7.31
				c4.86,2.06,9.71,4.13,14.56,6.21l-7.59-32h-14.65L98.6,26.69C102.25,28.19,105.9,29.7,109.54,31.24"/>
		</defs>
		<clipPath id="SVGID_20_">
			<use xlink:href="#SVGID_19_"  style="overflow:visible;"/>
		</clipPath>
		<g class="st9">
			<defs>
				<rect id="SVGID_21_" x="-714.4" y="-3764.91" width="1440" height="5288"/>
			</defs>
			<clipPath id="SVGID_22_">
				<use xlink:href="#SVGID_21_"  style="overflow:visible;"/>
			</clipPath>
			<rect x="93.6" y="1.09" class="st10" width="37" height="42"/>
		</g>
	</g>
	<g>
		<defs>
			<path id="SVGID_23_" d="M103.62,37.07c0.99,5.71,2.2,11.32,3.42,17h-9.83c1.23-6.08,2.45-12.17,3.36-18.27
				c-3.78-1.59-7.56-3.15-11.35-4.7l-10.62,46h13.96L95.1,65.1h14.06l2.64,11.99h14.8l-7.97-33.65
				C113.63,41.31,108.63,39.18,103.62,37.07"/>
		</defs>
		<clipPath id="SVGID_24_">
			<use xlink:href="#SVGID_23_"  style="overflow:visible;"/>
		</clipPath>
		<g class="st11">
			<defs>
				<rect id="SVGID_25_" x="-714.4" y="-3764.91" width="1440" height="5288"/>
			</defs>
			<clipPath id="SVGID_26_">
				<use xlink:href="#SVGID_25_"  style="overflow:visible;"/>
			</clipPath>
			<rect x="73.6" y="26.09" class="st12" width="58" height="56"/>
		</g>
	</g>
	<g>
		<defs>
			<path id="SVGID_27_" d="M148.78,47.51c4.72,1.89,9.44,3.74,14.17,5.58v-6.15L179.6,6.09h-15.89l-4.94,15.4
				c-1.07,3.31-1.83,5.24-3.11,10.69c-0.86-3.21-2.26-7.7-3.22-10.59l-5.26-15.51H131.6l17.18,40.85V47.51z"/>
		</defs>
		<clipPath id="SVGID_28_">
			<use xlink:href="#SVGID_27_"  style="overflow:visible;"/>
		</clipPath>
		<g class="st13">
			<defs>
				<rect id="SVGID_29_" x="-714.4" y="-3764.91" width="1440" height="5288"/>
			</defs>
			<clipPath id="SVGID_30_">
				<use xlink:href="#SVGID_29_"  style="overflow:visible;"/>
			</clipPath>
			<rect x="126.6" y="1.09" class="st14" width="58" height="57"/>
		</g>
	</g>
	<g>
		<defs>
			<path id="SVGID_31_" d="M139.6,52.09v25h14V57.84C148.92,55.96,144.25,54.04,139.6,52.09"/>
		</defs>
		<clipPath id="SVGID_32_">
			<use xlink:href="#SVGID_31_"  style="overflow:visible;"/>
		</clipPath>
		<g class="st15">
			<defs>
				<rect id="SVGID_33_" x="-714.4" y="-3764.91" width="1440" height="5288"/>
			</defs>
			<clipPath id="SVGID_34_">
				<use xlink:href="#SVGID_33_"  style="overflow:visible;"/>
			</clipPath>
			<rect x="134.6" y="47.09" class="st16" width="24" height="35"/>
		</g>
	</g>
	<g>
		<defs>
			<path id="SVGID_35_" d="M176.6,66.09v10h14v-4.5C185.94,69.75,181.27,67.91,176.6,66.09"/>
		</defs>
		<clipPath id="SVGID_36_">
			<use xlink:href="#SVGID_35_"  style="overflow:visible;"/>
		</clipPath>
		<g class="st17">
			<defs>
				<rect id="SVGID_37_" x="-714.4" y="-3764.91" width="1440" height="5288"/>
			</defs>
			<clipPath id="SVGID_38_">
				<use xlink:href="#SVGID_37_"  style="overflow:visible;"/>
			</clipPath>
			<rect x="171.6" y="61.09" class="st18" width="24" height="20"/>
		</g>
	</g>
	<g>
		<defs>
			<path id="SVGID_39_" d="M198.6,68.09v-62h-14v56.29C189.27,64.27,193.94,66.17,198.6,68.09"/>
		</defs>
		<clipPath id="SVGID_40_">
			<use xlink:href="#SVGID_39_"  style="overflow:visible;"/>
		</clipPath>
		<g class="st19">
			<defs>
				<rect id="SVGID_41_" x="-714.4" y="-3764.91" width="1440" height="5288"/>
			</defs>
			<clipPath id="SVGID_42_">
				<use xlink:href="#SVGID_41_"  style="overflow:visible;"/>
			</clipPath>
			<rect x="179.6" y="1.09" class="st20" width="24" height="72"/>
		</g>
	</g>
	<g>
		<defs>
			<path id="SVGID_43_" d="M222.86,78.09h0.8V42.9c0-2.7-0.21-5.51-0.75-8.2l17.47,43.39h13.21v-72h-14.28v33.79
				c0,3.24,0.43,6.48,1.06,9.71l-17.47-43.5H209.6v66.47C214.03,74.39,218.45,76.24,222.86,78.09"/>
		</defs>
		<clipPath id="SVGID_44_">
			<use xlink:href="#SVGID_43_"  style="overflow:visible;"/>
		</clipPath>
		<g class="st21">
			<defs>
				<rect id="SVGID_45_" x="-714.4" y="-3764.91" width="1440" height="5288"/>
			</defs>
			<clipPath id="SVGID_46_">
				<use xlink:href="#SVGID_45_"  style="overflow:visible;"/>
			</clipPath>
			<rect x="204.6" y="1.09" class="st22" width="54" height="82"/>
		</g>
	</g>
	<g>
		<defs>
			<path id="SVGID_47_" d="M311.5,38c0.11,1.83,0.11,3.66,0.11,5.49c0,5.06-0.21,10.22-1.28,15.17
				c-2.34,11.08-9.47,20.44-21.5,20.44c-19.16,0-25.22-20.87-25.22-36.79c0-16.46,5.32-37.21,25.22-37.21
				c10.86,0,17.88,6.88,20.86,16.99l-13.62,5.38c-0.64-4.19-1.81-9.89-7.13-9.89c-9.58,0-10.32,17.75-10.32,24.52
				c0,7.1,0.32,24.09,10.43,24.09c7.66,0,8.51-9.68,8.62-15.49h-8.94V38H311.5z"/>
		</defs>
		<clipPath id="SVGID_48_">
			<use xlink:href="#SVGID_47_"  style="overflow:visible;"/>
		</clipPath>
		<g class="st23">
			<defs>
				<rect id="SVGID_49_" x="-714.4" y="-3764.91" width="1440" height="5288"/>
			</defs>
			<clipPath id="SVGID_50_">
				<use xlink:href="#SVGID_49_"  style="overflow:visible;"/>
			</clipPath>
			<rect x="258.6" y="0.09" class="st24" width="58" height="84"/>
		</g>
	</g>
	<g>
		<defs>
			<rect id="SVGID_51_" x="343.68" y="4.68" width="50.13" height="73.89"/>
		</defs>
		<clipPath id="SVGID_52_">
			<use xlink:href="#SVGID_51_"  style="overflow:visible;"/>
		</clipPath>
		<g class="st25">
			<defs>
				<rect id="SVGID_53_" x="-714.4" y="-3764.91" width="1440" height="5288"/>
			</defs>
			<clipPath id="SVGID_54_">
				<use xlink:href="#SVGID_53_"  style="overflow:visible;"/>
			</clipPath>
			<g class="st26">
				<g>
					<defs>
						<rect id="SVGID_55_" x="343.6" y="4.09" width="51" height="75"/>
					</defs>
					<clipPath id="SVGID_56_">
						<use xlink:href="#SVGID_55_"  style="overflow:visible;"/>
					</clipPath>
					<g class="st27">
						<defs>
							<path id="SVGID_57_" d="M387.38,68.47c-4.18,5.91-11.25,10.09-18.64,10.09s-14.35-4.19-18.64-10.09
								c-5.46-7.52-6.43-17.83-6.43-26.85c0-9.24,0.96-19.22,6.43-26.96c4.18-6.01,11.35-9.99,18.64-9.99
								c7.39,0,14.35,4.08,18.64,9.99c5.46,7.52,6.43,17.93,6.43,26.96C393.8,50.86,392.84,60.74,387.38,68.47 M368.74,17.68
								c-9.32,0-10.07,17.08-10.07,23.63c0,6.55,0.75,23.63,10.07,23.63c9.32,0,10.07-17.08,10.07-23.63
								C378.81,34.75,378.06,17.68,368.74,17.68"/>
						</defs>
						<clipPath id="SVGID_58_">
							<use xlink:href="#SVGID_57_"  style="overflow:visible;"/>
						</clipPath>
						<g class="st28">
							<defs>
								<rect id="SVGID_59_" x="343.6" y="4.09" width="51" height="75"/>
							</defs>
							<clipPath id="SVGID_60_">
								<use xlink:href="#SVGID_59_"  style="overflow:visible;"/>
							</clipPath>
							<rect x="338.68" y="-0.32" class="st29" width="60.13" height="83.89"/>
						</g>
					</g>
				</g>
			</g>
		</g>
	</g>
	<g>
		<defs>
			<path id="SVGID_61_" d="M440.85,30.67l6.75-24.58h-14.57l-7.71,27.51c-1.45,5.06-2.2,10.27-2.72,15.49L440.85,30.67z"/>
		</defs>
		<clipPath id="SVGID_62_">
			<use xlink:href="#SVGID_61_"  style="overflow:visible;"/>
		</clipPath>
		<g class="st30">
			<defs>
				<rect id="SVGID_63_" x="-714.4" y="-3764.91" width="1440" height="5288"/>
			</defs>
			<clipPath id="SVGID_64_">
				<use xlink:href="#SVGID_63_"  style="overflow:visible;"/>
			</clipPath>
			<rect x="417.6" y="1.09" class="st31" width="35" height="53"/>
		</g>
	</g>
	<g>
		<defs>
			<path id="SVGID_65_" d="M421.6,49.85c-0.73-5.48-1.71-10.93-3.16-16.23l-7.62-27.53H395.6l15.71,54L421.6,49.85z"/>
		</defs>
		<clipPath id="SVGID_66_">
			<use xlink:href="#SVGID_65_"  style="overflow:visible;"/>
		</clipPath>
		<g class="st32">
			<defs>
				<rect id="SVGID_67_" x="-714.4" y="-3764.91" width="1440" height="5288"/>
			</defs>
			<clipPath id="SVGID_68_">
				<use xlink:href="#SVGID_67_"  style="overflow:visible;"/>
			</clipPath>
			<rect x="390.6" y="1.09" class="st33" width="36" height="64"/>
		</g>
	</g>
	<g>
		<defs>
			<polygon id="SVGID_69_" points="410.6,71.34 413.97,83.09 425.44,83.09 435.6,46.09 			"/>
		</defs>
		<clipPath id="SVGID_70_">
			<use xlink:href="#SVGID_69_"  style="overflow:visible;"/>
		</clipPath>
		<g class="st34">
			<defs>
				<rect id="SVGID_71_" x="-714.4" y="-3764.91" width="1440" height="5288"/>
			</defs>
			<clipPath id="SVGID_72_">
				<use xlink:href="#SVGID_71_"  style="overflow:visible;"/>
			</clipPath>
			<rect x="405.6" y="41.09" class="st35" width="35" height="47"/>
		</g>
	</g>
	<g>
		<defs>
			<rect id="SVGID_73_" x="450.24" y="11.9" width="28.84" height="71.19"/>
		</defs>
		<clipPath id="SVGID_74_">
			<use xlink:href="#SVGID_73_"  style="overflow:visible;"/>
		</clipPath>
		<g class="st36">
			<defs>
				<rect id="SVGID_75_" x="-714.4" y="-3764.91" width="1440" height="5288"/>
			</defs>
			<clipPath id="SVGID_76_">
				<use xlink:href="#SVGID_75_"  style="overflow:visible;"/>
			</clipPath>
			<g class="st37">
				<g>
					<defs>
						<rect id="SVGID_77_" x="449.6" y="11.09" width="30" height="73"/>
					</defs>
					<clipPath id="SVGID_78_">
						<use xlink:href="#SVGID_77_"  style="overflow:visible;"/>
					</clipPath>
					<g class="st38">
						<defs>
							<polygon id="SVGID_79_" points="464.5,53.95 477.13,53.95 477.13,40.5 464.5,40.5 464.5,25.13 478.86,25.13 478.86,11.9 
								469.78,11.9 450.24,31.21 450.24,83.09 479.08,83.09 479.08,69.96 464.5,69.96 							"/>
						</defs>
						<clipPath id="SVGID_80_">
							<use xlink:href="#SVGID_79_"  style="overflow:visible;"/>
						</clipPath>
						<g class="st39">
							<defs>
								<rect id="SVGID_81_" x="449.6" y="11.09" width="30" height="72"/>
							</defs>
							<clipPath id="SVGID_82_">
								<use xlink:href="#SVGID_81_"  style="overflow:visible;"/>
							</clipPath>
							<rect x="445.24" y="6.9" class="st40" width="38.84" height="81.19"/>
						</g>
					</g>
				</g>
			</g>
		</g>
	</g>
	<g>
		<defs>
			<polygon id="SVGID_83_" points="465.6,6.09 453.6,6.09 453.6,18.09 			"/>
		</defs>
		<clipPath id="SVGID_84_">
			<use xlink:href="#SVGID_83_"  style="overflow:visible;"/>
		</clipPath>
		<g class="st41">
			<defs>
				<rect id="SVGID_85_" x="-714.4" y="-3764.91" width="1440" height="5288"/>
			</defs>
			<clipPath id="SVGID_86_">
				<use xlink:href="#SVGID_85_"  style="overflow:visible;"/>
			</clipPath>
			<rect x="448.6" y="1.09" class="st42" width="22" height="22"/>
		</g>
	</g>
	<g>
		<defs>
			<rect id="SVGID_87_" x="489" y="11.9" width="41.07" height="71.19"/>
		</defs>
		<clipPath id="SVGID_88_">
			<use xlink:href="#SVGID_87_"  style="overflow:visible;"/>
		</clipPath>
		<g class="st43">
			<defs>
				<rect id="SVGID_89_" x="-714.4" y="-3764.91" width="1440" height="5288"/>
			</defs>
			<clipPath id="SVGID_90_">
				<use xlink:href="#SVGID_89_"  style="overflow:visible;"/>
			</clipPath>
			<g class="st44">
				<g>
					<defs>
						<rect id="SVGID_91_" x="488.6" y="11.09" width="42" height="73"/>
					</defs>
					<clipPath id="SVGID_92_">
						<use xlink:href="#SVGID_91_"  style="overflow:visible;"/>
					</clipPath>
					<g class="st45">
						<defs>
							<path id="SVGID_93_" d="M515.35,83.09l-12.38-32.77v32.77H489V11.9h15.14c5.19,0,10.9,0.43,15.35,3.42
								c5.61,3.74,8.36,10.67,8.36,17.29c0,8.11-3.18,13.88-10.05,18.15l12.28,32.34H515.35z M502.97,42.53
								c0.74,0.11,1.59,0.11,2.33,0.11c6.03,0,9-4.16,9-9.93c0-5.76-2.54-9.71-8.68-9.71h-2.65V42.53z"/>
						</defs>
						<clipPath id="SVGID_94_">
							<use xlink:href="#SVGID_93_"  style="overflow:visible;"/>
						</clipPath>
						<g class="st46">
							<defs>
								<rect id="SVGID_95_" x="488.6" y="11.09" width="42" height="72"/>
							</defs>
							<clipPath id="SVGID_96_">
								<use xlink:href="#SVGID_95_"  style="overflow:visible;"/>
							</clipPath>
							<rect x="484" y="6.9" class="st47" width="51.07" height="81.19"/>
						</g>
					</g>
				</g>
			</g>
		</g>
	</g>
</g>
</svg>
