<?xml version="1.0" encoding="utf-8"?>
<!-- Generator: Adobe Illustrator 19.2.0, SVG Export Plug-In . SVG Version: 6.00 Build 0)  -->
<svg version="1.1" id="Layer_1" xmlns="http://www.w3.org/2000/svg" xmlns:xlink="http://www.w3.org/1999/xlink" x="0px" y="0px"
	 viewBox="0 0 708.7 137.3" style="enable-background:new 0 0 708.7 137.3;" xml:space="preserve">
<style type="text/css">
	.st0{clip-path:url(#SVGID_2_);}
	.st1{clip-path:url(#SVGID_4_);fill:#FFFFFF;}
	.st2{clip-path:url(#SVGID_6_);}
	.st3{clip-path:url(#SVGID_8_);fill:#FFFFFF;}
	.st4{clip-path:url(#SVGID_10_);}
	.st5{clip-path:url(#SVGID_12_);fill:#FFFFFF;}
	.st6{clip-path:url(#SVGID_14_);}
	.st7{clip-path:url(#SVGID_16_);enable-background:new    ;}
	.st8{clip-path:url(#SVGID_18_);}
	.st9{clip-path:url(#SVGID_20_);}
	.st10{clip-path:url(#SVGID_22_);fill:#FFFFFF;}
	.st11{clip-path:url(#SVGID_24_);}
	.st12{clip-path:url(#SVGID_26_);fill:#FFFFFF;}
	.st13{clip-path:url(#SVGID_28_);}
	.st14{clip-path:url(#SVGID_30_);fill:#FFFFFF;}
	.st15{clip-path:url(#SVGID_32_);}
	.st16{clip-path:url(#SVGID_34_);fill:#FFFFFF;}
	.st17{clip-path:url(#SVGID_36_);}
	.st18{clip-path:url(#SVGID_38_);fill:#FFFFFF;}
	.st19{clip-path:url(#SVGID_40_);}
	.st20{clip-path:url(#SVGID_42_);enable-background:new    ;}
	.st21{clip-path:url(#SVGID_44_);}
	.st22{clip-path:url(#SVGID_46_);}
	.st23{clip-path:url(#SVGID_48_);fill:#FFFFFF;}
	.st24{clip-path:url(#SVGID_50_);}
	.st25{clip-path:url(#SVGID_52_);fill:#FFFFFF;}
	.st26{clip-path:url(#SVGID_54_);}
	.st27{clip-path:url(#SVGID_56_);enable-background:new    ;}
	.st28{clip-path:url(#SVGID_58_);}
	.st29{clip-path:url(#SVGID_60_);}
	.st30{clip-path:url(#SVGID_62_);fill:#FFFFFF;}
	.st31{clip-path:url(#SVGID_64_);}
	.st32{clip-path:url(#SVGID_66_);enable-background:new    ;}
	.st33{clip-path:url(#SVGID_68_);}
	.st34{clip-path:url(#SVGID_70_);}
	.st35{clip-path:url(#SVGID_72_);fill:#FFFFFF;}
</style>
<g>
	<defs>
		<path id="SVGID_1_" d="M18.8,127.4h25.9c1.9-1.9,3.7-3.7,5.6-5.6V38.5h17.4v-28H1.4v28h17.4V127.4z"/>
	</defs>
	<clipPath id="SVGID_2_">
		<use xlink:href="#SVGID_1_"  style="overflow:visible;"/>
	</clipPath>
	<g class="st0">
		<defs>
			<rect id="SVGID_3_" x="-426.6" y="-1457.7" width="1828.9" height="6716.1"/>
		</defs>
		<clipPath id="SVGID_4_">
			<use xlink:href="#SVGID_3_"  style="overflow:visible;"/>
		</clipPath>
		<rect x="-4.9" y="4.1" class="st1" width="79" height="129.6"/>
	</g>
</g>
<g>
	<defs>
		<path id="SVGID_5_" d="M154.1,18.1v-7.6h-31.5v39.1C133,39,143.5,28.6,154.1,18.1"/>
	</defs>
	<clipPath id="SVGID_6_">
		<use xlink:href="#SVGID_5_"  style="overflow:visible;"/>
	</clipPath>
	<g class="st2">
		<defs>
			<rect id="SVGID_7_" x="-426.6" y="-1457.7" width="1828.9" height="6716.1"/>
		</defs>
		<clipPath id="SVGID_8_">
			<use xlink:href="#SVGID_7_"  style="overflow:visible;"/>
		</clipPath>
		<rect x="116.2" y="4.1" class="st3" width="44.2" height="51.8"/>
	</g>
</g>
<g>
	<defs>
		<path id="SVGID_9_" d="M120.2,51.8h-12.8V10.5H75.9v85.7C90.6,81.3,105.4,66.6,120.2,51.8"/>
	</defs>
	<clipPath id="SVGID_10_">
		<use xlink:href="#SVGID_9_"  style="overflow:visible;"/>
	</clipPath>
	<g class="st4">
		<defs>
			<rect id="SVGID_11_" x="-426.6" y="-1457.7" width="1828.9" height="6716.1"/>
		</defs>
		<clipPath id="SVGID_12_">
			<use xlink:href="#SVGID_11_"  style="overflow:visible;"/>
		</clipPath>
		<rect x="69.5" y="4.1" class="st5" width="57" height="98.4"/>
	</g>
</g>
<g>
	<defs>
		<rect id="SVGID_13_" x="75.9" y="36.5" width="78.2" height="99.7"/>
	</defs>
	<clipPath id="SVGID_14_">
		<use xlink:href="#SVGID_13_"  style="overflow:visible;"/>
	</clipPath>
	<g class="st6">
		<defs>
			<rect id="SVGID_15_" x="-426.6" y="-1457.7" width="1828.9" height="6716.1"/>
		</defs>
		<clipPath id="SVGID_16_">
			<use xlink:href="#SVGID_15_"  style="overflow:visible;"/>
		</clipPath>
		<g class="st7">
			<g>
				<defs>
					<rect id="SVGID_17_" x="75.1" y="35.9" width="80" height="101.6"/>
				</defs>
				<clipPath id="SVGID_18_">
					<use xlink:href="#SVGID_17_"  style="overflow:visible;"/>
				</clipPath>
				<g class="st8">
					<defs>
						<path id="SVGID_19_" d="M127.7,62.8C110.4,80,93.1,97.3,75.9,114.6v21.7h31.5v-47h15.1v47h31.5V36.5
							C145.3,45.3,136.4,54,127.7,62.8"/>
					</defs>
					<clipPath id="SVGID_20_">
						<use xlink:href="#SVGID_19_"  style="overflow:visible;"/>
					</clipPath>
					<g class="st9">
						<defs>
							<rect id="SVGID_21_" x="75.1" y="35.9" width="80" height="101.6"/>
						</defs>
						<clipPath id="SVGID_22_">
							<use xlink:href="#SVGID_21_"  style="overflow:visible;"/>
						</clipPath>
						<rect x="69.5" y="30.2" class="st10" width="90.9" height="112.4"/>
					</g>
				</g>
			</g>
		</g>
	</g>
</g>
<g>
	<defs>
		<path id="SVGID_23_" d="M228.9,46.9V19.3h-57.6c-0.3,0.3-0.6,0.6-1,1v116h58.5v-28h-27V90.3h24.2V63.9h-24.2v-17H228.9z"/>
	</defs>
	<clipPath id="SVGID_24_">
		<use xlink:href="#SVGID_23_"  style="overflow:visible;"/>
	</clipPath>
	<g class="st11">
		<defs>
			<rect id="SVGID_25_" x="-426.6" y="-1457.7" width="1828.9" height="6716.1"/>
		</defs>
		<clipPath id="SVGID_26_">
			<use xlink:href="#SVGID_25_"  style="overflow:visible;"/>
		</clipPath>
		<rect x="164" y="13" class="st12" width="71.2" height="129.6"/>
	</g>
</g>
<g>
	<defs>
		<path id="SVGID_27_" d="M354.1,53.4l11.7-43h-34.4l-7.4,38.7c-1.2,6.3-2.3,12.8-3.2,19.3c-0.7,6.1-1.2,12.1-1.8,18.2
			c-2.1-25.6-6.7-51-11-76.2H275l22.7,99.2C316.5,90.9,335.3,72.2,354.1,53.4"/>
	</defs>
	<clipPath id="SVGID_28_">
		<use xlink:href="#SVGID_27_"  style="overflow:visible;"/>
	</clipPath>
	<g class="st13">
		<defs>
			<rect id="SVGID_29_" x="-426.6" y="-1457.7" width="1828.9" height="6716.1"/>
		</defs>
		<clipPath id="SVGID_30_">
			<use xlink:href="#SVGID_29_"  style="overflow:visible;"/>
		</clipPath>
		<rect x="268.6" y="4.1" class="st14" width="103.5" height="111.9"/>
	</g>
</g>
<g>
	<defs>
		<path id="SVGID_31_" d="M312.2,108.5l2.3,10h32.1l16.6-60.8C346.2,74.6,329.2,91.5,312.2,108.5"/>
	</defs>
	<clipPath id="SVGID_32_">
		<use xlink:href="#SVGID_31_"  style="overflow:visible;"/>
	</clipPath>
	<g class="st15">
		<defs>
			<rect id="SVGID_33_" x="-426.6" y="-1457.7" width="1828.9" height="6716.1"/>
		</defs>
		<clipPath id="SVGID_34_">
			<use xlink:href="#SVGID_33_"  style="overflow:visible;"/>
		</clipPath>
		<rect x="305.9" y="51.3" class="st16" width="63.7" height="73.5"/>
	</g>
</g>
<g>
	<defs>
		<path id="SVGID_35_" d="M396.9,10.5H374v23C381.7,25.8,389.3,18.1,396.9,10.5"/>
	</defs>
	<clipPath id="SVGID_36_">
		<use xlink:href="#SVGID_35_"  style="overflow:visible;"/>
	</clipPath>
	<g class="st17">
		<defs>
			<rect id="SVGID_37_" x="-426.6" y="-1457.7" width="1828.9" height="6716.1"/>
		</defs>
		<clipPath id="SVGID_38_">
			<use xlink:href="#SVGID_37_"  style="overflow:visible;"/>
		</clipPath>
		<rect x="367.7" y="4.1" class="st18" width="35.6" height="35.7"/>
	</g>
</g>
<g>
	<defs>
		<rect id="SVGID_39_" x="386.7" y="1.6" width="58.5" height="116.9"/>
	</defs>
	<clipPath id="SVGID_40_">
		<use xlink:href="#SVGID_39_"  style="overflow:visible;"/>
	</clipPath>
	<g class="st19">
		<defs>
			<rect id="SVGID_41_" x="-426.6" y="-1457.7" width="1828.9" height="6716.1"/>
		</defs>
		<clipPath id="SVGID_42_">
			<use xlink:href="#SVGID_41_"  style="overflow:visible;"/>
		</clipPath>
		<g class="st20">
			<g>
				<defs>
					<rect id="SVGID_43_" x="386.2" y="1.6" width="59.7" height="118.1"/>
				</defs>
				<clipPath id="SVGID_44_">
					<use xlink:href="#SVGID_43_"  style="overflow:visible;"/>
				</clipPath>
				<g class="st21">
					<defs>
						<path id="SVGID_45_" d="M386.7,34.1v84.4h58.5v-28h-27V72.6h24.2V46.1h-24.2v-17h27V1.6h-26.1
							C408.4,12.4,397.5,23.3,386.7,34.1"/>
					</defs>
					<clipPath id="SVGID_46_">
						<use xlink:href="#SVGID_45_"  style="overflow:visible;"/>
					</clipPath>
					<g class="st22">
						<defs>
							<rect id="SVGID_47_" x="386.2" y="1.6" width="59.7" height="118.1"/>
						</defs>
						<clipPath id="SVGID_48_">
							<use xlink:href="#SVGID_47_"  style="overflow:visible;"/>
						</clipPath>
						<rect x="380.4" y="-4.8" class="st23" width="71.2" height="129.6"/>
					</g>
				</g>
			</g>
		</g>
	</g>
</g>
<g>
	<defs>
		<path id="SVGID_49_" d="M510.8,118.5c-8.2-22.3-17.4-44.3-23.8-67.3c0.9,12.4,1.9,25.1,1.9,37.5v29.8h-30.1V1.6h30.1l15.8,41
			c3.7,9.6,6.7,19.6,9.6,29.4c-1.8-14.4-3.5-28.6-3.5-43.1V1.6H541v116.9H510.8z"/>
	</defs>
	<clipPath id="SVGID_50_">
		<use xlink:href="#SVGID_49_"  style="overflow:visible;"/>
	</clipPath>
	<g class="st24">
		<defs>
			<rect id="SVGID_51_" x="-426.6" y="-1457.7" width="1828.9" height="6716.1"/>
		</defs>
		<clipPath id="SVGID_52_">
			<use xlink:href="#SVGID_51_"  style="overflow:visible;"/>
		</clipPath>
		<rect x="452.4" y="-4.8" class="st25" width="94.9" height="129.6"/>
	</g>
</g>
<g>
	<defs>
		<rect id="SVGID_53_" x="557.4" y="1.6" width="79.2" height="119"/>
	</defs>
	<clipPath id="SVGID_54_">
		<use xlink:href="#SVGID_53_"  style="overflow:visible;"/>
	</clipPath>
	<g class="st26">
		<defs>
			<rect id="SVGID_55_" x="-426.6" y="-1457.7" width="1828.9" height="6716.1"/>
		</defs>
		<clipPath id="SVGID_56_">
			<use xlink:href="#SVGID_55_"  style="overflow:visible;"/>
		</clipPath>
		<g class="st27">
			<g>
				<defs>
					<rect id="SVGID_57_" x="556.4" y="1.6" width="81.3" height="119.4"/>
				</defs>
				<clipPath id="SVGID_58_">
					<use xlink:href="#SVGID_57_"  style="overflow:visible;"/>
				</clipPath>
				<g class="st28">
					<defs>
						<path id="SVGID_59_" d="M636.6,84.3c0,11.7-2.6,19.5-11.7,27.2c-7.5,6.5-16.7,9.1-26.5,9.1c-10.7,0-21.6-3-29.6-10.2
							c-9.1-8.1-11.4-18.8-11.4-30.5V1.6H589v75.5c0,6,0.2,13.8,8.1,13.8c8.1,0,8.1-7.9,8.1-13.8V1.6h31.5V84.3z"/>
					</defs>
					<clipPath id="SVGID_60_">
						<use xlink:href="#SVGID_59_"  style="overflow:visible;"/>
					</clipPath>
					<g class="st29">
						<defs>
							<rect id="SVGID_61_" x="556.4" y="1.6" width="81.3" height="119.4"/>
						</defs>
						<clipPath id="SVGID_62_">
							<use xlink:href="#SVGID_61_"  style="overflow:visible;"/>
						</clipPath>
						<rect x="551.1" y="-4.8" class="st30" width="91.9" height="131.7"/>
					</g>
				</g>
			</g>
		</g>
	</g>
</g>
<g>
	<defs>
		<rect id="SVGID_63_" x="652.9" y="1.6" width="58.5" height="116.9"/>
	</defs>
	<clipPath id="SVGID_64_">
		<use xlink:href="#SVGID_63_"  style="overflow:visible;"/>
	</clipPath>
	<g class="st31">
		<defs>
			<rect id="SVGID_65_" x="-426.6" y="-1457.7" width="1828.9" height="6716.1"/>
		</defs>
		<clipPath id="SVGID_66_">
			<use xlink:href="#SVGID_65_"  style="overflow:visible;"/>
		</clipPath>
		<g class="st32">
			<g>
				<defs>
					<rect id="SVGID_67_" x="652.9" y="1.6" width="59.7" height="118.1"/>
				</defs>
				<clipPath id="SVGID_68_">
					<use xlink:href="#SVGID_67_"  style="overflow:visible;"/>
				</clipPath>
				<g class="st33">
					<defs>
						<polygon id="SVGID_69_" points="652.9,118.5 652.9,1.6 711.5,1.6 711.5,29.1 684.5,29.1 684.5,46.1 708.7,46.1 708.7,72.6 
							684.5,72.6 684.5,90.4 711.5,90.4 711.5,118.5 						"/>
					</defs>
					<clipPath id="SVGID_70_">
						<use xlink:href="#SVGID_69_"  style="overflow:visible;"/>
					</clipPath>
					<g class="st34">
						<defs>
							<rect id="SVGID_71_" x="652.9" y="1.6" width="59.7" height="118.1"/>
						</defs>
						<clipPath id="SVGID_72_">
							<use xlink:href="#SVGID_71_"  style="overflow:visible;"/>
						</clipPath>
						<rect x="646.6" y="-4.8" class="st35" width="71.2" height="129.6"/>
					</g>
				</g>
			</g>
		</g>
	</g>
</g>
</svg>
